<?xml version="1.0" encoding="utf-8"?>
<!-- Generator: Adobe Illustrator 27.3.1, SVG Export Plug-In . SVG Version: 6.00 Build 0)  -->
<svg version="1.1" id="Layer_1" xmlns="http://www.w3.org/2000/svg" xmlns:xlink="http://www.w3.org/1999/xlink" x="0px" y="0px"
	 viewBox="0 0 1080 1080" enable-background="new 0 0 1080 1080" xml:space="preserve">
<path fill="#FFFFFF" stroke="#000000" stroke-width="0.25" stroke-miterlimit="10" d="M580.97,310.66
	c-16.34-4.81-34.97-14.52-34.97-14.52v-13.48c0,0,33.94-18.7,36-18.67C594.35,264.21,597.86,315.64,580.97,310.66z"/>
<g>
	<ellipse fill="#FFFFFF" cx="545" cy="532.5" rx="216" ry="216.5"/>
	<path fill="#FFFFFF" stroke="#000000" stroke-width="4" stroke-miterlimit="10" d="M258.1,532.53c0,158.51,128.49,287,287,287
		s287-128.49,287-287l-50,2c0,130.89-106.11,237-237,237s-237-106.11-237-237L258.1,532.53z"/>
	<g>
		<g>
			<g>
				<g>
					<g>
						<g>
							<path fill="#FFFFFF" d="M540.35,291.48c0.18,1.15,0.5,2.24,0.94,3.22c-0.68-0.14-1.38-0.26-2.1-0.35
								c-0.05-0.01-0.11-0.01-0.17-0.02c-0.1-0.01-0.21-0.03-0.33-0.04c-0.09-0.01-0.19-0.02-0.29-0.03
								c-0.38-0.04-0.72-0.08-0.72-0.09c-0.37-0.57-0.66-1.2-0.88-1.86c-0.23-0.7-0.37-1.45-0.4-2.22
								c-0.07-1.66,0.36-3.21,1.15-4.53c0-0.01,0.37-0.08,0.73-0.16c0.13-0.03,0.25-0.05,0.36-0.07c0.07-0.01,0.13-0.03,0.18-0.04
								c0.02,0,0.04-0.01,0.06-0.01c0.76-0.16,1.49-0.35,2.2-0.56c-0.64,1.56-0.96,3.37-0.89,5.27
								C540.22,290.48,540.27,290.99,540.35,291.48z"/>
						</g>
						<path fill="#DCDCDC" d="M537.82,292.03c0.19,0.78,0.49,1.53,0.87,2.25c-0.09-0.01-0.19-0.02-0.29-0.03
							c-0.38-0.04-0.72-0.08-0.72-0.09c-0.37-0.57-0.66-1.2-0.88-1.86C537.13,292.21,537.47,292.12,537.82,292.03z"/>
					</g>
					<g>
						<g>
							<polygon points="546.89,299.43 547.04,297.32 542.67,296.86 542.76,299.09 							"/>
						</g>
						<polygon points="546.89,299.43 547.89,299.46 548.05,297.28 547.04,297.18 						"/>
					</g>
					<g>
						<g>
							<g>
								<path d="M548.54,281.37c-0.04,0.07-0.09,0.15-0.13,0.22c-0.03,0.05-0.05,0.09-0.08,0.14c-0.04,0.06-0.07,0.13-0.11,0.19
									c-0.01,0.01-0.02,0.03-0.02,0.04c-0.02,0.04-0.04,0.08-0.06,0.12c-0.02,0.04-0.04,0.08-0.06,0.12
									c0,0.01-0.01,0.02-0.01,0.02c-0.04,0.07-0.08,0.15-0.11,0.22c-0.02,0.04-0.04,0.08-0.06,0.12
									c-0.03,0.06-0.06,0.12-0.09,0.18c-0.02,0.03-0.03,0.07-0.05,0.1c-0.03,0.06-0.06,0.12-0.09,0.19
									c-0.03,0.06-0.06,0.13-0.08,0.19c-0.01,0.02-0.02,0.03-0.02,0.05c-0.03,0.08-0.07,0.16-0.1,0.23l-0.02,0.06
									c0,0,0,0.01,0,0.01c-0.02,0.05-0.04,0.1-0.06,0.15c-0.02,0.05-0.04,0.11-0.06,0.16c-0.01,0.02-0.02,0.04-0.02,0.06
									c-0.03,0.08-0.06,0.17-0.09,0.25c0,0,0,0,0,0c-0.03,0.08-0.05,0.15-0.08,0.23c0,0,0,0,0,0c-0.03,0.08-0.05,0.15-0.07,0.23
									c-0.02,0.07-0.04,0.13-0.06,0.2c-0.01,0.04-0.03,0.09-0.04,0.13c-0.01,0.04-0.03,0.09-0.04,0.13
									c-0.01,0.04-0.03,0.09-0.04,0.13c-0.01,0.04-0.02,0.09-0.04,0.13s-0.02,0.09-0.03,0.13c-0.01,0.04-0.02,0.09-0.03,0.13
									c-0.01,0.05-0.02,0.09-0.03,0.14c-0.01,0.04-0.02,0.09-0.03,0.13c0,0.01,0,0.01,0,0.02c-0.02,0.08-0.04,0.16-0.05,0.24
									c0,0.01,0,0.01,0,0.02c0,0.02-0.01,0.05-0.01,0.07c-0.01,0.03-0.01,0.06-0.02,0.09c-0.01,0.04-0.01,0.08-0.02,0.12
									c-0.01,0.06-0.02,0.11-0.03,0.17c-0.02,0.11-0.04,0.23-0.06,0.35c-0.02,0.15-0.04,0.3-0.06,0.46c0,0.04-0.01,0.07-0.01,0.11
									c0,0.02,0,0.03-0.01,0.05c-0.01,0.08-0.02,0.16-0.02,0.24c-0.01,0.09-0.02,0.18-0.02,0.27c-0.01,0.1-0.01,0.2-0.02,0.31
									c0,0.05,0,0.09-0.01,0.14c0,0.05,0,0.09-0.01,0.14c0,0.04,0,0.08,0,0.11c0,0.02,0,0.04,0,0.07c0,0.04,0,0.09,0,0.13
									c0,0.07,0,0.14,0,0.22c0,0.02,0,0.04,0,0.06c0,0.09,0,0.17,0,0.26c0,0,0,0,0,0c0,0.1,0.01,0.19,0.01,0.29
									c0,0.09,0.01,0.17,0.01,0.26c0,0.09,0.01,0.17,0.02,0.26c0,0.04,0.01,0.09,0.01,0.13c0,0.04,0.01,0.08,0.01,0.13
									c0,0.02,0,0.04,0.01,0.06c0.01,0.1,0.02,0.2,0.03,0.31c0,0.01,0,0.02,0,0.03c0,0.03,0.01,0.07,0.01,0.1
									c0.01,0.1,0.02,0.19,0.04,0.28c0.01,0.04,0.01,0.07,0.02,0.11c0.01,0.04,0.01,0.09,0.02,0.13c0.01,0.04,0.01,0.08,0.02,0.12
									c0.01,0.09,0.03,0.18,0.05,0.27c0.01,0.03,0.01,0.07,0.02,0.1c0.01,0.04,0.02,0.08,0.02,0.12c0.01,0.07,0.03,0.13,0.04,0.2
									c0,0.01,0,0.01,0,0.02c0.01,0.05,0.02,0.1,0.03,0.15c0,0,0,0.01,0,0.01c0.01,0.04,0.02,0.07,0.03,0.11
									c0.01,0.04,0.02,0.08,0.03,0.11c0.02,0.07,0.04,0.14,0.06,0.22c0.02,0.09,0.05,0.18,0.08,0.27
									c0.01,0.04,0.02,0.08,0.03,0.12c0.01,0.04,0.02,0.08,0.04,0.12c0.01,0.04,0.02,0.08,0.04,0.12
									c0.01,0.04,0.02,0.08,0.04,0.12s0.03,0.08,0.04,0.12c0.03,0.08,0.05,0.16,0.08,0.24c0.01,0.04,0.03,0.08,0.04,0.12
									c0.04,0.11,0.08,0.23,0.13,0.34c0,0,0,0.01,0.01,0.01c0.04,0.11,0.09,0.23,0.14,0.34c0.01,0.03,0.03,0.07,0.04,0.1
									c0.02,0.04,0.04,0.08,0.05,0.13c0.02,0.04,0.03,0.08,0.05,0.11c0.07,0.15,0.14,0.3,0.21,0.45c0.05,0.11,0.11,0.22,0.16,0.33
									c0.09,0.18,0.19,0.37,0.29,0.55c0.04,0.07,0.08,0.14,0.12,0.21c0.06,0.11,0.13,0.21,0.19,0.32
									c0.04,0.06,0.08,0.12,0.12,0.19c0.01,0.01,0.01,0.02,0.02,0.03l0,0c-1.57-0.2-3.19-0.37-4.85-0.5
									c-0.12-0.01-0.25-0.02-0.4-0.03c-0.42-0.03-0.93-0.07-1.42-0.1c-0.88-0.06-1.66-0.11-1.67-0.12
									c-0.68-0.74-1.25-1.54-1.7-2.39c-0.38-0.72-0.68-1.47-0.87-2.25c-0.15-0.61-0.24-1.24-0.27-1.88
									c-0.07-1.69,0.32-3.32,1.1-4.84c0.44-0.87,1.01-1.7,1.69-2.48c0.01-0.01,0.86-0.14,1.7-0.27c0.47-0.07,0.94-0.15,1.25-0.2
									c0.05-0.01,0.1-0.02,0.15-0.02C545.19,282.06,546.9,281.73,548.54,281.37z"/>
							</g>
						</g>
						<path d="M548.73,297.42c-1.57-0.2-3.19-0.37-4.85-0.5c-0.12-0.01-0.25-0.02-0.4-0.03c-0.42-0.03-0.93-0.07-1.42-0.1
							c-0.88-0.06-1.66-0.11-1.67-0.12c-0.68-0.74-1.25-1.54-1.7-2.39c-0.38-0.72-0.68-1.47-0.87-2.25
							c0.82-0.21,1.67-0.39,2.53-0.56c1.92-0.37,3.95-0.63,6.05-0.78c0,0.02,0,0.05,0.01,0.07c0,0.02,0,0.04,0.01,0.06
							c0,0.01,0,0.01,0,0.02c0,0.01,0,0.03,0,0.04c0,0.04,0.01,0.07,0.01,0.11c0,0.01,0,0.02,0,0.03c0,0.03,0.01,0.07,0.01,0.1
							c0.01,0.1,0.02,0.19,0.04,0.28c0.01,0.04,0.01,0.07,0.02,0.11c0.01,0.04,0.01,0.09,0.02,0.13c0.01,0.04,0.01,0.08,0.02,0.12
							c0.01,0.09,0.03,0.18,0.05,0.27c0.01,0.03,0.01,0.06,0.02,0.09c0,0,0,0.01,0,0.01c0.01,0.04,0.02,0.08,0.02,0.12
							c0.01,0.04,0.02,0.08,0.03,0.12c0.01,0.03,0.01,0.05,0.02,0.08c0,0.01,0,0.01,0,0.02c0.01,0.05,0.02,0.1,0.03,0.15
							c0,0,0,0.01,0,0.01c0.01,0.04,0.02,0.07,0.03,0.11c0.01,0.04,0.02,0.08,0.03,0.11c0.02,0.07,0.04,0.14,0.06,0.22
							c0,0.01,0.01,0.02,0.01,0.03c0.01,0.03,0.02,0.07,0.03,0.1c0,0.01,0,0.01,0,0.02c0.01,0.04,0.02,0.08,0.03,0.12
							c0.01,0.04,0.02,0.08,0.03,0.12c0.01,0.04,0.02,0.08,0.04,0.12c0.01,0.04,0.02,0.08,0.04,0.12c0.01,0.04,0.02,0.08,0.04,0.12
							s0.03,0.08,0.04,0.12c0.01,0.04,0.03,0.08,0.04,0.12c0.01,0.04,0.03,0.08,0.04,0.12c0,0.01,0,0.01,0.01,0.02
							c0.01,0.03,0.02,0.06,0.03,0.1c0.01,0.04,0.03,0.08,0.04,0.12c0.01,0.04,0.03,0.08,0.04,0.12c0.01,0.04,0.03,0.07,0.04,0.11
							c0,0,0,0.01,0.01,0.01c0.04,0.11,0.09,0.23,0.14,0.34c0.01,0.03,0.03,0.07,0.04,0.1c0.02,0.04,0.04,0.08,0.05,0.13
							c0.02,0.04,0.03,0.08,0.05,0.11c0,0.01,0.01,0.01,0.01,0.02c0.01,0.03,0.03,0.06,0.04,0.09c0.03,0.08,0.07,0.15,0.1,0.23
							c0.02,0.04,0.04,0.07,0.05,0.11c0.01,0.03,0.03,0.06,0.04,0.08c0,0.01,0.01,0.02,0.01,0.03c0.01,0.02,0.02,0.04,0.03,0.06
							c0.03,0.06,0.06,0.11,0.08,0.17c0.09,0.18,0.19,0.37,0.29,0.55c0,0,0,0,0,0c0.04,0.07,0.08,0.14,0.12,0.21
							c0.06,0.11,0.13,0.21,0.19,0.32c0.04,0.06,0.08,0.12,0.12,0.19C548.71,297.41,548.72,297.41,548.73,297.42z"/>
					</g>
					<g>
						<g>
							<path fill="none" d="M592.38,287.67c0.25,6.1-0.47,11.7-1.84,15.95c-1.56,4.82-3.96,7.9-6.77,8.01
								c-0.9,0.04-2.1-0.44-2.62-0.77c-0.04-0.02-0.08-0.05-0.11-0.07c-0.04-0.03-0.08-0.06-0.13-0.08
								c-0.02-0.02-0.05-0.03-0.07-0.05c-0.04-0.03-0.09-0.06-0.13-0.1c-0.03-0.02-0.07-0.05-0.1-0.08
								c-0.03-0.02-0.06-0.05-0.1-0.08c0,0-0.01-0.01-0.01-0.01c-0.03-0.02-0.06-0.05-0.09-0.08c-0.03-0.03-0.07-0.06-0.1-0.08
								c0,0-0.01-0.01-0.01-0.01c-0.05-0.05-0.1-0.09-0.15-0.14c-0.01-0.01-0.02-0.01-0.02-0.02c-0.03-0.03-0.06-0.05-0.09-0.08
								c-0.09-0.09-0.19-0.18-0.27-0.27c-0.02-0.02-0.04-0.05-0.07-0.07c-0.01-0.01-0.02-0.02-0.02-0.03
								c-0.02-0.02-0.04-0.05-0.07-0.07c-0.03-0.03-0.06-0.06-0.09-0.1c-0.03-0.04-0.06-0.07-0.09-0.1c-0.09-0.1-0.17-0.2-0.25-0.3
								c-0.25-0.31-0.47-0.6-0.66-0.87c0,0,0,0,0,0c-0.42-0.6-0.83-1.28-1.21-2.02c-0.03-0.07-0.07-0.13-0.1-0.2
								c-0.03-0.05-0.05-0.1-0.08-0.16c-0.04-0.07-0.07-0.14-0.11-0.21c-0.03-0.06-0.05-0.11-0.08-0.17c-0.05-0.1-0.1-0.2-0.14-0.3
								c-0.02-0.05-0.04-0.1-0.07-0.14c-0.09-0.21-0.19-0.41-0.27-0.63c-0.03-0.06-0.05-0.12-0.08-0.18
								c-0.03-0.06-0.05-0.12-0.08-0.19c-0.09-0.22-0.18-0.45-0.27-0.68c-0.02-0.05-0.04-0.1-0.05-0.15
								c-0.07-0.18-0.13-0.35-0.19-0.53c-0.04-0.12-0.09-0.25-0.13-0.37c-0.04-0.11-0.08-0.23-0.12-0.35
								c-0.13-0.39-0.25-0.78-0.37-1.19c-0.02-0.06-0.04-0.13-0.06-0.19c-0.02-0.07-0.04-0.14-0.06-0.21
								c-0.03-0.1-0.06-0.2-0.08-0.3c-0.06-0.24-0.13-0.48-0.19-0.72c-0.02-0.07-0.03-0.14-0.05-0.21
								c-0.02-0.09-0.04-0.17-0.06-0.26c-0.02-0.07-0.03-0.13-0.05-0.2c-0.03-0.12-0.06-0.25-0.09-0.38c0-0.01,0-0.02-0.01-0.03
								c-0.02-0.07-0.03-0.14-0.05-0.21c-0.03-0.14-0.06-0.28-0.09-0.41c-0.03-0.14-0.06-0.28-0.09-0.42
								c-0.02-0.08-0.03-0.17-0.05-0.25c-0.01-0.07-0.03-0.13-0.04-0.2c-0.06-0.31-0.12-0.62-0.17-0.94
								c-0.01-0.06-0.02-0.12-0.03-0.17c-0.01-0.08-0.03-0.15-0.04-0.23c-0.01-0.09-0.03-0.18-0.04-0.26
								c-0.01-0.06-0.02-0.13-0.03-0.19c-0.02-0.14-0.04-0.28-0.07-0.43c0-0.01,0-0.02,0-0.03c-0.01-0.06-0.02-0.12-0.03-0.18
								c-0.01-0.1-0.03-0.19-0.04-0.29c-0.01-0.08-0.02-0.15-0.03-0.23c-0.01-0.08-0.02-0.16-0.03-0.23
								c-0.02-0.16-0.04-0.31-0.06-0.47c-0.04-0.32-0.08-0.65-0.11-0.98c-0.02-0.15-0.03-0.3-0.05-0.45
								c-0.03-0.31-0.06-0.63-0.08-0.95c-0.01-0.08-0.01-0.16-0.02-0.24c0-0.01,0-0.02,0-0.04c-0.02-0.3-0.04-0.61-0.06-0.91
								c0-0.04,0-0.08-0.01-0.11c0-0.07-0.01-0.14-0.01-0.21c0-0.06-0.01-0.13-0.01-0.19c0-0.02,0-0.03,0-0.05c0,0,0-0.01,0-0.01
								c0-0.01,0-0.02,0-0.02c-0.01-0.1-0.01-0.21-0.01-0.31c0-0.05,0-0.11-0.01-0.16l0,0c0-0.08-0.01-0.16-0.01-0.24
								c0-0.02,0-0.04,0-0.06c0,0,0,0,0,0c0-0.06,0-0.13-0.01-0.19c0-0.15-0.01-0.31-0.01-0.46c0-0.16-0.01-0.32-0.01-0.47
								c0-0.08,0-0.16,0-0.24c0-0.08,0-0.16,0-0.23c0-0.08,0-0.16,0-0.23c0-0.13,0-0.26,0-0.38c0-0.12,0-0.24,0-0.37
								c0-0.09,0-0.17,0-0.26c0-0.14,0-0.29,0.01-0.43c0-0.01,0-0.02,0-0.02c0-0.1,0-0.19,0.01-0.29c0-0.12,0.01-0.25,0.01-0.37
								c0-0.08,0.01-0.15,0.01-0.23c0.01-0.23,0.02-0.47,0.03-0.7c0-0.07,0.01-0.13,0.01-0.2c0.01-0.1,0.01-0.21,0.02-0.31
								c0-0.05,0.01-0.09,0.01-0.14c0-0.06,0.01-0.12,0.01-0.18c0-0.05,0.01-0.1,0.01-0.16c0.04-0.55,0.08-1.09,0.14-1.62
								c0.01-0.07,0.01-0.14,0.02-0.21c0.05-0.5,0.11-0.99,0.18-1.47c0.03-0.2,0.06-0.4,0.09-0.6c0.01-0.07,0.02-0.15,0.03-0.22
								c0.01-0.07,0.02-0.13,0.03-0.2c0.03-0.2,0.06-0.39,0.1-0.59c0.01-0.03,0.01-0.07,0.02-0.1c0.02-0.1,0.04-0.2,0.05-0.3
								c0.05-0.26,0.1-0.53,0.15-0.78c0.03-0.13,0.05-0.25,0.08-0.38c0.03-0.13,0.05-0.25,0.08-0.38c0.01-0.06,0.03-0.12,0.04-0.19
								c0.04-0.19,0.09-0.37,0.13-0.55c0.02-0.1,0.05-0.2,0.08-0.3c0.01-0.05,0.03-0.1,0.04-0.15c0.01-0.05,0.03-0.1,0.04-0.15
								c0.02-0.07,0.04-0.14,0.06-0.21c0.03-0.12,0.07-0.25,0.1-0.37c0.02-0.08,0.05-0.16,0.07-0.24c0.17-0.57,0.34-1.12,0.53-1.64
								c0.03-0.07,0.05-0.14,0.08-0.21c0.06-0.17,0.13-0.34,0.2-0.51c0.03-0.08,0.06-0.15,0.09-0.22c0.03-0.08,0.07-0.16,0.1-0.24
								c0.32-0.76,0.66-1.45,1.03-2.08c0.06-0.11,0.13-0.21,0.19-0.32c0.03-0.05,0.06-0.09,0.08-0.14c0.03-0.05,0.06-0.09,0.09-0.13
								c0.03-0.04,0.05-0.08,0.08-0.12c0.02-0.03,0.04-0.07,0.07-0.1c0.04-0.05,0.07-0.1,0.11-0.15c0.02-0.03,0.04-0.05,0.06-0.08
								c0.03-0.04,0.05-0.07,0.08-0.11c0.53-0.73,1.1-1.32,1.69-1.77c0.8-0.6,1.65-0.94,2.55-0.98
								C587.14,264.26,591.85,274.65,592.38,287.67z"/>
						</g>
						<g>
							<path d="M587.28,288.47c0.17,4.32-0.36,8.37-1.42,11.77c-1.39,4.43-3.67,7.75-6.44,9.11c-0.09-0.1-0.17-0.2-0.25-0.3
								c-0.25-0.31-0.47-0.6-0.66-0.87c0,0,0,0,0,0c-0.42-0.6-0.83-1.28-1.21-2.02c-0.03-0.07-0.07-0.13-0.1-0.2
								c-0.03-0.05-0.05-0.1-0.08-0.16c-0.04-0.07-0.07-0.14-0.11-0.21c-0.03-0.06-0.05-0.11-0.08-0.17c-0.05-0.1-0.1-0.2-0.14-0.3
								c-0.02-0.05-0.04-0.1-0.07-0.14c-0.09-0.21-0.19-0.41-0.27-0.63c-0.03-0.06-0.05-0.12-0.08-0.18
								c-0.03-0.06-0.05-0.12-0.08-0.19c-0.09-0.22-0.18-0.45-0.27-0.68c-0.02-0.05-0.04-0.1-0.05-0.15
								c-0.07-0.18-0.13-0.35-0.19-0.53c-0.04-0.12-0.09-0.25-0.13-0.37c-0.04-0.11-0.08-0.23-0.12-0.35
								c-0.13-0.39-0.25-0.78-0.37-1.19c-0.02-0.06-0.04-0.13-0.06-0.19c-0.02-0.07-0.04-0.14-0.06-0.21
								c-0.03-0.1-0.06-0.2-0.08-0.3c-0.06-0.24-0.13-0.48-0.19-0.72c-0.02-0.07-0.03-0.14-0.05-0.21
								c-0.02-0.09-0.04-0.17-0.06-0.26c-0.02-0.07-0.03-0.13-0.05-0.2c-0.03-0.12-0.06-0.25-0.09-0.38c0-0.01,0-0.02-0.01-0.03
								c-0.02-0.07-0.03-0.14-0.05-0.21c-0.03-0.14-0.06-0.28-0.09-0.41c-0.03-0.14-0.06-0.28-0.09-0.42
								c-0.02-0.08-0.03-0.17-0.05-0.25c-0.01-0.07-0.03-0.13-0.04-0.2c-0.06-0.31-0.12-0.62-0.17-0.94
								c-0.01-0.06-0.02-0.12-0.03-0.17c-0.01-0.08-0.03-0.15-0.04-0.23c-0.01-0.09-0.03-0.18-0.04-0.26
								c-0.01-0.06-0.02-0.13-0.03-0.19c-0.02-0.14-0.04-0.28-0.07-0.43c0-0.01,0-0.02,0-0.03c-0.01-0.06-0.02-0.12-0.03-0.18
								c-0.01-0.1-0.03-0.19-0.04-0.29c-0.01-0.08-0.02-0.15-0.03-0.23c-0.01-0.08-0.02-0.16-0.03-0.23
								c-0.02-0.16-0.04-0.31-0.06-0.47c-0.04-0.32-0.08-0.65-0.11-0.98c-0.02-0.15-0.03-0.3-0.05-0.45
								c-0.03-0.31-0.06-0.63-0.08-0.95c-0.01-0.08-0.01-0.16-0.02-0.24c0-0.01,0-0.02,0-0.04c-0.02-0.3-0.04-0.61-0.06-0.91
								c0-0.04,0-0.08-0.01-0.11c0-0.07-0.01-0.14-0.01-0.21c0-0.06-0.01-0.13-0.01-0.19c0-0.02,0-0.03,0-0.05c0,0,0-0.01,0-0.01
								c0-0.01,0-0.02,0-0.02c-0.01-0.1-0.01-0.21-0.01-0.31c0-0.05,0-0.11-0.01-0.16l0,0c0-0.08-0.01-0.16-0.01-0.24
								c0-0.02,0-0.04,0-0.06c0,0,0,0,0,0c0-0.06,0-0.13-0.01-0.19c0-0.15-0.01-0.31-0.01-0.46c0-0.16-0.01-0.32-0.01-0.47
								c0-0.08,0-0.16,0-0.24c0-0.08,0-0.16,0-0.23c0-0.08,0-0.16,0-0.23c0-0.13,0-0.26,0-0.38c0-0.12,0-0.24,0-0.37
								c0-0.09,0-0.17,0-0.26c0-0.14,0-0.29,0.01-0.43c0-0.01,0-0.02,0-0.02c0-0.1,0-0.19,0.01-0.29c0-0.12,0.01-0.25,0.01-0.37
								c0-0.08,0.01-0.15,0.01-0.23c0.01-0.23,0.02-0.47,0.03-0.7c0-0.07,0.01-0.13,0.01-0.2c0.01-0.1,0.01-0.21,0.02-0.31
								c0-0.05,0.01-0.09,0.01-0.14c0-0.06,0.01-0.12,0.01-0.18c0-0.05,0.01-0.1,0.01-0.16c0.04-0.55,0.08-1.09,0.14-1.62
								c0.01-0.07,0.01-0.14,0.02-0.21c0.05-0.5,0.11-0.99,0.18-1.47c0.03-0.2,0.06-0.4,0.09-0.6c0.01-0.07,0.02-0.15,0.03-0.22
								c0.01-0.07,0.02-0.13,0.03-0.2c0.03-0.2,0.06-0.39,0.1-0.59c0.01-0.03,0.01-0.07,0.02-0.1c0.02-0.1,0.04-0.2,0.05-0.3
								c0.05-0.26,0.1-0.53,0.15-0.78c0.03-0.13,0.05-0.25,0.08-0.38c0.03-0.13,0.05-0.25,0.08-0.38c0.01-0.06,0.03-0.12,0.04-0.19
								c0.04-0.19,0.09-0.37,0.13-0.55c0.02-0.1,0.05-0.2,0.08-0.3c0.01-0.05,0.03-0.1,0.04-0.15c0.01-0.05,0.03-0.1,0.04-0.15
								c0.02-0.07,0.04-0.14,0.06-0.21c0.03-0.12,0.07-0.25,0.1-0.37c0.02-0.08,0.05-0.16,0.07-0.24c0.17-0.57,0.34-1.12,0.53-1.64
								c0.03-0.07,0.05-0.14,0.08-0.21c0.06-0.17,0.13-0.34,0.2-0.51c0.03-0.08,0.06-0.15,0.09-0.22c0.03-0.08,0.07-0.16,0.1-0.24
								c0.32-0.76,0.66-1.45,1.03-2.08c0.06-0.11,0.13-0.21,0.19-0.32l0,0C582.46,269.56,586.86,278.05,587.28,288.47z"/>
						</g>
					</g>
					<g>
						<g>
							<path fill="#FFFFFF" d="M578.18,291.41c-1.64,0.22-3.2,0.51-4.62,0.85c-0.15-1.24-0.25-2.52-0.3-3.83
								c-0.05-1.3-0.05-2.58-0.01-3.82c1.44,0.22,3.02,0.39,4.67,0.48c1.62,0.09,2.4,0.13,3.83,0.07c0.66-0.03,1.24,1.26,1.31,2.88
								c0.07,1.62-0.41,2.95-1.07,2.98C580.56,291.09,579.78,291.19,578.18,291.41z"/>
						</g>
						<path fill="#DCDCDC" d="M581.92,289.27c-1.43,0.06-2.21,0.16-3.81,0.38c-1.64,0.22-3.2,0.51-4.62,0.85
							c-0.11-0.02-0.08,0.53,0.07,1.76c1.42-0.34,2.98-0.63,4.62-0.85c1.6-0.22,2.38-0.32,3.81-0.38c0.66-0.03,1.14-1.36,1.07-2.98
							c-0.01-0.31-0.04-0.6-0.09-0.88C582.86,288.37,582.45,289.25,581.92,289.27z"/>
						<g>
							<g>
								<path d="M583.06,288.06c0.07,1.62-0.41,2.95-1.07,2.98c-0.11,0-0.26-0.06-0.33-0.1c-0.15-0.09-0.26-0.23-0.33-0.33
									c-0.05-0.08-0.1-0.16-0.15-0.25c-0.07-0.13-0.13-0.28-0.19-0.44c-0.17-0.49-0.29-1.1-0.31-1.76
									c-0.03-0.63,0.03-1.22,0.15-1.71c0.05-0.19,0.1-0.37,0.17-0.53c0.04-0.09,0.08-0.18,0.13-0.26c0.03-0.05,0.06-0.1,0.09-0.14
									c0.07-0.09,0.14-0.16,0.21-0.22c0.1-0.07,0.21-0.12,0.32-0.12C582.41,285.15,582.99,286.44,583.06,288.06z"/>
							</g>
						</g>
					</g>
					<g>
						<g>
							<g>
								<path d="M583.8,312.3c-1.04,0.04-2.38-0.48-3-0.87c-0.04-0.03-0.08-0.05-0.13-0.08c-0.05-0.03-0.09-0.06-0.14-0.09
									l-0.03-0.02c-0.02-0.01-0.04-0.02-0.05-0.04c-0.05-0.03-0.1-0.07-0.14-0.1c-0.04-0.03-0.07-0.06-0.11-0.08
									c-0.03-0.03-0.07-0.05-0.1-0.08c0,0-0.01,0-0.01-0.01l-0.01-0.01c-0.03-0.03-0.07-0.05-0.1-0.08
									c-0.03-0.03-0.07-0.06-0.1-0.09c0,0,0,0,0,0l-0.01-0.01c-0.06-0.05-0.11-0.1-0.17-0.15l-0.01-0.01
									c-0.01-0.01-0.02-0.02-0.03-0.02c-0.03-0.03-0.06-0.06-0.09-0.08c-0.1-0.09-0.2-0.19-0.29-0.29l-0.1-0.1
									c-0.02-0.03-0.05-0.05-0.07-0.08c-0.02-0.02-0.04-0.05-0.07-0.07l-0.03-0.03c-0.03-0.04-0.06-0.07-0.1-0.11
									c-0.09-0.1-0.18-0.21-0.27-0.32c-0.25-0.31-0.47-0.6-0.65-0.85l-0.15-0.15l0-0.07c-0.4-0.59-0.78-1.23-1.14-1.93
									c-0.03-0.07-0.07-0.14-0.11-0.21l-0.02-0.04c-0.02-0.04-0.04-0.08-0.06-0.12c-0.04-0.07-0.07-0.15-0.11-0.22
									c-0.03-0.06-0.06-0.12-0.08-0.17c-0.05-0.1-0.1-0.21-0.15-0.31l-0.02-0.04c-0.02-0.03-0.03-0.07-0.05-0.1
									c-0.09-0.21-0.19-0.42-0.28-0.64c-0.03-0.06-0.05-0.12-0.08-0.19c-0.03-0.06-0.05-0.13-0.08-0.19
									c-0.09-0.23-0.18-0.46-0.27-0.7c-0.02-0.05-0.04-0.1-0.06-0.15c-0.06-0.16-0.12-0.33-0.2-0.54
									c-0.04-0.12-0.09-0.25-0.13-0.38c-0.04-0.12-0.08-0.23-0.12-0.35c-0.13-0.4-0.26-0.8-0.37-1.21
									c-0.02-0.06-0.04-0.13-0.06-0.19c-0.02-0.07-0.04-0.14-0.06-0.21c-0.03-0.1-0.06-0.2-0.08-0.3
									c-0.07-0.24-0.13-0.48-0.19-0.73c-0.02-0.06-0.03-0.13-0.05-0.19l0-0.02c-0.02-0.09-0.04-0.18-0.07-0.27
									c-0.02-0.07-0.03-0.14-0.05-0.21c-0.03-0.12-0.06-0.25-0.09-0.38l-0.05-0.24c-0.03-0.14-0.06-0.28-0.09-0.42
									c-0.03-0.14-0.06-0.28-0.09-0.42l-0.05-0.26c-0.01-0.06-0.03-0.13-0.04-0.19c-0.06-0.32-0.12-0.64-0.18-0.95l-0.03-0.18
									c-0.01-0.08-0.03-0.15-0.04-0.23c-0.01-0.09-0.03-0.18-0.04-0.27l-0.03-0.19c-0.02-0.14-0.04-0.29-0.07-0.43
									c0-0.02,0-0.03-0.01-0.04c-0.01-0.05-0.02-0.11-0.02-0.16l0-0.02c-0.01-0.09-0.03-0.19-0.04-0.29
									c-0.01-0.08-0.02-0.15-0.03-0.23c-0.01-0.08-0.02-0.16-0.03-0.24c-0.02-0.15-0.04-0.31-0.06-0.47
									c-0.04-0.33-0.08-0.67-0.11-0.99c-0.02-0.15-0.03-0.3-0.05-0.46c-0.03-0.32-0.06-0.64-0.08-0.96
									c-0.01-0.08-0.01-0.16-0.02-0.24l0-0.04c-0.02-0.31-0.04-0.62-0.06-0.93c0-0.04,0-0.08-0.01-0.11c0-0.07-0.01-0.13-0.01-0.2
									l0-0.03c0-0.06-0.01-0.12-0.01-0.17c0-0.02,0-0.04,0-0.06c0-0.01,0-0.02,0-0.03c0-0.1-0.01-0.2-0.01-0.31
									c0-0.05,0-0.11-0.01-0.16l0-0.01c0-0.08-0.01-0.17-0.01-0.25c0-0.02,0-0.04,0-0.06c0-0.06,0-0.12-0.01-0.17l0-0.02
									c0-0.15-0.01-0.3-0.01-0.45l0-0.02c0-0.16-0.01-0.32-0.01-0.48c0-0.08,0-0.16,0-0.24c0-0.08,0-0.16,0-0.24
									c0-0.08,0-0.16,0-0.24c0-0.13,0-0.26,0-0.39c0-0.12,0-0.24,0-0.37l0-0.09c0-0.06,0-0.12,0-0.18c0-0.14,0-0.29,0.01-0.43
									l0-0.02l0.01-0.29c0-0.12,0.01-0.25,0.01-0.37c0-0.07,0.01-0.15,0.01-0.23c0.01-0.23,0.02-0.47,0.03-0.71
									c0-0.07,0.01-0.13,0.01-0.2c0.01-0.1,0.01-0.21,0.02-0.31l0.01-0.13c0-0.07,0.01-0.13,0.01-0.19c0-0.05,0.01-0.1,0.01-0.15
									l0-0.01c0.04-0.54,0.08-1.09,0.14-1.64l0.02-0.22c0.05-0.5,0.11-1,0.18-1.49c0.03-0.22,0.06-0.41,0.09-0.61
									c0.01-0.08,0.02-0.15,0.03-0.23c0.01-0.07,0.02-0.14,0.03-0.2c0.03-0.19,0.06-0.39,0.1-0.59c0.01-0.03,0.01-0.06,0.02-0.1
									l0-0.01c0.02-0.1,0.04-0.2,0.05-0.3c0.05-0.27,0.1-0.53,0.15-0.8c0.03-0.13,0.05-0.26,0.08-0.38
									c0.03-0.13,0.06-0.26,0.09-0.39c0.01-0.06,0.03-0.13,0.04-0.19c0.04-0.17,0.08-0.36,0.13-0.56c0.02-0.1,0.05-0.2,0.08-0.31
									c0.01-0.04,0.02-0.07,0.03-0.11l0.01-0.05c0.01-0.03,0.02-0.06,0.02-0.09l0.02-0.07c0.02-0.07,0.04-0.15,0.06-0.22
									c0.03-0.12,0.07-0.25,0.1-0.38c0.02-0.08,0.05-0.16,0.07-0.24c0.17-0.58,0.35-1.15,0.55-1.68c0.03-0.07,0.05-0.14,0.08-0.21
									c0.06-0.16,0.13-0.33,0.2-0.53c0.03-0.08,0.06-0.16,0.09-0.23c0.03-0.08,0.07-0.16,0.1-0.25c0.33-0.78,0.69-1.51,1.07-2.16
									c0.06-0.1,0.12-0.21,0.2-0.33l0.19-0.31l0.01,0c0.02-0.04,0.05-0.07,0.07-0.11l0.07-0.1c0.04-0.06,0.07-0.11,0.11-0.16
									c0.02-0.03,0.04-0.06,0.06-0.09c0.03-0.04,0.05-0.08,0.08-0.11c0.57-0.79,1.19-1.43,1.83-1.91c0.92-0.7,1.91-1.07,2.92-1.11
									c2.85-0.12,5.57,2.38,7.68,7.03c2.02,4.46,3.28,10.43,3.53,16.81c0.24,5.95-0.42,11.7-1.87,16.18
									c-0.82,2.53-1.84,4.54-3.04,5.99C586.83,311.4,585.37,312.24,583.8,312.3z M580.92,309.87l0.02,0.01
									c0.03,0.02,0.06,0.04,0.08,0.07c0.03,0.02,0.06,0.05,0.09,0.07c0.04,0.03,0.08,0.06,0.12,0.08
									c0.01,0.01,0.03,0.02,0.04,0.03l0.03,0.02c0.03,0.02,0.07,0.05,0.11,0.07l0.01,0c0.03,0.02,0.06,0.04,0.09,0.06
									c0.47,0.29,1.53,0.7,2.24,0.67c2.39-0.1,4.63-2.85,6.15-7.55c1.4-4.34,2.04-9.92,1.81-15.71c-0.25-6.21-1.46-12-3.41-16.31
									c-0.93-2.05-1.97-3.64-3.1-4.72c-1.09-1.05-2.2-1.56-3.3-1.51c-0.74,0.03-1.47,0.31-2.17,0.84
									c-0.54,0.4-1.06,0.95-1.55,1.63c-0.02,0.03-0.05,0.07-0.07,0.1l-0.01,0.01c-0.02,0.02-0.03,0.04-0.04,0.06l-0.01,0.01
									c-0.03,0.05-0.07,0.09-0.1,0.14l-0.07,0.1c-0.02,0.04-0.05,0.07-0.07,0.11l0,0.01c-0.03,0.04-0.05,0.08-0.08,0.13
									c-0.03,0.04-0.05,0.08-0.08,0.13l-0.09,0.15c-0.03,0.05-0.06,0.1-0.09,0.15c-0.35,0.6-0.68,1.28-0.99,2.01
									c-0.03,0.08-0.06,0.15-0.1,0.23c-0.03,0.07-0.06,0.14-0.09,0.22c-0.07,0.18-0.13,0.34-0.19,0.5
									c-0.03,0.07-0.05,0.14-0.07,0.2c-0.18,0.51-0.36,1.05-0.52,1.6c-0.02,0.08-0.05,0.16-0.07,0.23
									c-0.03,0.12-0.07,0.24-0.1,0.36c-0.02,0.07-0.04,0.14-0.06,0.21l-0.02,0.06c-0.01,0.03-0.01,0.05-0.02,0.08l-0.01,0.05
									c-0.01,0.03-0.02,0.06-0.02,0.09l0,0.01c-0.02,0.1-0.05,0.2-0.07,0.29c-0.05,0.2-0.09,0.37-0.13,0.54
									c-0.01,0.06-0.03,0.12-0.04,0.18c-0.03,0.13-0.06,0.25-0.08,0.38c-0.03,0.12-0.05,0.25-0.08,0.37
									c-0.05,0.26-0.1,0.52-0.15,0.77c-0.02,0.1-0.03,0.19-0.05,0.29l0,0.01c0,0.03-0.01,0.05-0.01,0.08l0,0.01
									c-0.03,0.19-0.07,0.39-0.1,0.58c-0.01,0.07-0.02,0.13-0.03,0.2c-0.01,0.07-0.02,0.14-0.03,0.21l0,0.01
									c-0.03,0.19-0.06,0.38-0.08,0.59c-0.06,0.47-0.12,0.96-0.17,1.45l-0.02,0.21c-0.05,0.53-0.1,1.06-0.13,1.59l0,0.01
									c0,0.05-0.01,0.09-0.01,0.14l0,0.01c0,0.06-0.01,0.12-0.01,0.18l-0.01,0.13c-0.01,0.1-0.01,0.2-0.02,0.3
									c0,0.07-0.01,0.13-0.01,0.2c-0.01,0.24-0.02,0.47-0.03,0.69c0,0.08-0.01,0.15-0.01,0.22c0,0.12-0.01,0.24-0.01,0.36
									l-0.01,0.31c0,0.14-0.01,0.28-0.01,0.42c0,0.06,0,0.11,0,0.17l0,0.09c0,0.12,0,0.24,0,0.36c0,0.13,0,0.25,0,0.38
									c0,0.08,0,0.15,0,0.23c0,0.08,0,0.16,0,0.23c0,0.08,0,0.15,0,0.23c0,0.16,0.01,0.31,0.01,0.47l0,0.02
									c0,0.15,0.01,0.29,0.01,0.44l0,0.01c0,0.06,0,0.11,0.01,0.17l0,0.02c0,0.02,0,0.03,0,0.05c0,0.08,0.01,0.16,0.01,0.24
									c0,0.05,0,0.11,0.01,0.16c0,0.1,0.01,0.2,0.01,0.31l0,0.02l0,0l0,0c0,0.01,0,0.03,0,0.04l0,0.01c0,0.06,0.01,0.11,0.01,0.17
									l0,0.03c0,0.06,0.01,0.13,0.01,0.19l0,0.01c0,0.04,0,0.07,0.01,0.11c0.02,0.3,0.04,0.6,0.06,0.91l0,0.03
									c0.01,0.08,0.01,0.16,0.02,0.23c0.02,0.31,0.05,0.63,0.08,0.94c0.01,0.15,0.03,0.3,0.04,0.45c0.03,0.31,0.07,0.64,0.11,0.97
									c0.02,0.16,0.04,0.31,0.06,0.46c0.01,0.08,0.02,0.15,0.03,0.23c0.01,0.08,0.02,0.15,0.03,0.22c0.01,0.1,0.03,0.19,0.04,0.28
									l0,0.02c0.01,0.05,0.02,0.11,0.02,0.16l0.01,0.04c0.02,0.14,0.04,0.28,0.06,0.42l0.03,0.19c0.01,0.09,0.03,0.17,0.04,0.26
									c0.01,0.08,0.03,0.15,0.04,0.22l0.03,0.17c0.05,0.3,0.11,0.61,0.17,0.93c0.01,0.06,0.03,0.13,0.04,0.2l0.05,0.25
									c0.03,0.14,0.06,0.27,0.09,0.41c0.03,0.14,0.06,0.27,0.09,0.41l0.04,0.2c0,0.01,0.01,0.03,0.01,0.04
									c0.03,0.12,0.06,0.24,0.08,0.36c0.02,0.07,0.03,0.13,0.05,0.2l0,0c0.02,0.09,0.04,0.17,0.06,0.26l0,0.02
									c0.02,0.06,0.03,0.12,0.05,0.19c0.06,0.24,0.12,0.48,0.19,0.71c0.03,0.1,0.05,0.2,0.08,0.29c0.02,0.07,0.04,0.13,0.06,0.2
									c0.02,0.06,0.04,0.13,0.05,0.19c0.12,0.39,0.24,0.79,0.36,1.17c0.04,0.11,0.08,0.23,0.11,0.34
									c0.04,0.12,0.08,0.24,0.13,0.36c0.07,0.2,0.13,0.37,0.19,0.52c0.02,0.05,0.04,0.09,0.05,0.14l0,0
									c0.08,0.23,0.17,0.45,0.26,0.67c0.03,0.06,0.05,0.12,0.08,0.18c0.02,0.06,0.05,0.12,0.08,0.18
									c0.09,0.21,0.18,0.42,0.27,0.61l0,0.01c0.01,0.03,0.03,0.06,0.04,0.09l0.02,0.05c0.04,0.09,0.09,0.19,0.14,0.29
									c0.03,0.06,0.06,0.12,0.08,0.17c0.03,0.07,0.07,0.14,0.1,0.21c0.02,0.04,0.04,0.08,0.06,0.11l0.02,0.04
									c0.03,0.06,0.06,0.13,0.1,0.19c0.37,0.71,0.76,1.36,1.16,1.94c0.18,0.25,0.39,0.54,0.64,0.83c0.08,0.1,0.16,0.19,0.24,0.28
									c0.03,0.03,0.06,0.07,0.09,0.1l0.02,0.02c0.02,0.02,0.04,0.04,0.06,0.06l0,0c0.02,0.02,0.04,0.04,0.06,0.06
									c0.01,0.01,0.02,0.02,0.03,0.03l0.06,0.06c0.09,0.09,0.17,0.17,0.25,0.25c0.03,0.03,0.05,0.05,0.08,0.07l0.02,0.02
									c0.04,0.04,0.09,0.08,0.14,0.12c0,0,0,0,0,0l0.01,0.01c0.03,0.03,0.06,0.05,0.09,0.07
									C580.86,309.83,580.89,309.85,580.92,309.87C580.92,309.87,580.92,309.87,580.92,309.87z M573.95,288.89L573.95,288.89
									C573.95,288.89,573.95,288.89,573.95,288.89z"/>
							</g>
						</g>
					</g>
					<g>
						<g>
							<path fill="#FFFFFF" d="M541.76,284.61c-0.06-0.02-0.12-0.07-0.12-0.14c-0.01-0.09,0.05-0.18,0.15-0.19l1.65-0.2
								c0.09-0.01,0.18,0.05,0.19,0.15c0.01,0.09-0.05,0.18-0.15,0.19l-1.65,0.2C541.8,284.62,541.78,284.61,541.76,284.61z"/>
						</g>
						<g>
							<path fill="#FFFFFF" d="M541.53,285.45c-0.06-0.02-0.12-0.07-0.12-0.14c-0.01-0.09,0.05-0.18,0.15-0.19l1.65-0.2
								c0.09-0.01,0.18,0.05,0.19,0.15c0.01,0.09-0.05,0.18-0.15,0.19l-1.65,0.2C541.57,285.46,541.55,285.45,541.53,285.45z"/>
						</g>
						<g>
							<path fill="#FFFFFF" d="M541.29,286.29c-0.06-0.02-0.12-0.07-0.12-0.14c-0.01-0.09,0.05-0.18,0.15-0.19l1.65-0.2
								c0.09-0.01,0.18,0.05,0.19,0.15c0.01,0.09-0.05,0.18-0.15,0.19l-1.65,0.2C541.34,286.3,541.31,286.29,541.29,286.29z"/>
						</g>
					</g>
				</g>
			</g>
			<path fill="none" stroke="#000000" stroke-width="2" stroke-miterlimit="10" d="M579.65,265.23c-5.79,3.06-11.58,6.13-17.37,9.19
				c-4.82,2.55-10.32,5.46-15.61,8.26"/>
			<line fill="none" stroke="#000000" stroke-width="2" stroke-miterlimit="10" x1="547.58" y1="297.4" x2="581.66" y2="311.13"/>
		</g>
		<rect x="543.1" y="296.53" width="4" height="41"/>
	</g>
	<g>
		<g>
			<path d="M452.54,792.72l-1.95-22.8l5.01,1.68l1.61,20.15l-2.93-0.98l13.53-15.08l4.58,1.53l-15.29,17.03L452.54,792.72z"/>
			<path d="M480.05,801.04c-1.62-0.38-3.04-1-4.28-1.84c-1.24-0.85-2.25-1.87-3.04-3.06c-0.79-1.19-1.31-2.5-1.56-3.91
				c-0.25-1.42-0.2-2.88,0.16-4.4c0.36-1.54,0.97-2.88,1.83-4.02c0.86-1.14,1.9-2.07,3.14-2.79c1.24-0.71,2.59-1.18,4.07-1.38
				c1.47-0.21,3.02-0.12,4.64,0.26c1.62,0.38,3.04,0.99,4.27,1.83c1.23,0.83,2.24,1.85,3.03,3.04c0.79,1.19,1.31,2.5,1.56,3.91
				c0.25,1.42,0.2,2.89-0.17,4.43c-0.36,1.52-0.97,2.86-1.83,4.02c-0.86,1.16-1.91,2.1-3.15,2.82c-1.24,0.71-2.59,1.17-4.07,1.37
				C483.18,801.51,481.64,801.42,480.05,801.04z M480.96,797.04c0.92,0.21,1.79,0.25,2.64,0.11c0.84-0.14,1.63-0.44,2.35-0.89
				c0.72-0.46,1.34-1.04,1.85-1.75c0.51-0.71,0.88-1.55,1.1-2.53c0.23-0.97,0.28-1.89,0.14-2.76c-0.13-0.87-0.42-1.66-0.87-2.39
				c-0.44-0.73-1.01-1.35-1.71-1.85c-0.69-0.5-1.5-0.86-2.41-1.08c-0.92-0.22-1.8-0.26-2.65-0.12c-0.85,0.14-1.64,0.43-2.35,0.89
				c-0.71,0.46-1.33,1.04-1.83,1.76c-0.51,0.71-0.88,1.55-1.11,2.53s-0.28,1.89-0.14,2.76s0.42,1.66,0.85,2.39s1,1.35,1.7,1.85
				C479.24,796.46,480.05,796.82,480.96,797.04z"/>
			<path d="M494.99,803.99l10.66-11.06l-0.5,3.5l-6.82-13.18l5.43,0.77l4.73,9.16l-2.33-0.27l7.07-7.54l5.2,0.74l-10.17,10.55
				l0.49-3.45l7.22,13.76l-5.55-0.79l-4.86-9.69l2.2,0.31l-7.28,7.96L494.99,803.99z"/>
			<path d="M531.31,808.08l0.41-21l9.09,0.18c1.88,0.04,3.49,0.37,4.84,1.01c1.35,0.64,2.38,1.53,3.1,2.69
				c0.72,1.15,1.06,2.51,1.03,4.07c-0.03,1.58-0.43,2.93-1.19,4.04c-0.76,1.12-1.83,1.97-3.2,2.56c-1.37,0.59-3,0.87-4.88,0.83
				l-6.42-0.12l2.26-2.15l-0.16,7.98L531.31,808.08z M536.34,800.74l-2.17-2.35l6.15,0.12c1.48,0.03,2.6-0.27,3.38-0.89
				c0.77-0.63,1.17-1.52,1.19-2.68c0.02-1.16-0.34-2.06-1.09-2.71c-0.75-0.64-1.86-0.98-3.34-1.01l-6.15-0.12l2.26-2.27
				L536.34,800.74z"/>
			<path d="M565.94,807.9c-1.66,0.12-3.2-0.04-4.64-0.47c-1.44-0.44-2.71-1.11-3.82-2.01c-1.11-0.9-2-1.99-2.66-3.27
				c-0.67-1.27-1.05-2.69-1.17-4.25c-0.12-1.58,0.06-3.04,0.54-4.39c0.47-1.35,1.19-2.55,2.16-3.6c0.97-1.05,2.12-1.9,3.47-2.54
				s2.85-1.02,4.5-1.14c1.66-0.12,3.2,0.03,4.62,0.46c1.42,0.43,2.69,1.09,3.8,1.99c1.11,0.9,2,1.99,2.66,3.26
				c0.67,1.27,1.05,2.7,1.17,4.28c0.11,1.56-0.06,3.02-0.54,4.39c-0.47,1.37-1.19,2.58-2.16,3.63c-0.96,1.05-2.12,1.9-3.47,2.53
				C569.07,807.41,567.58,807.78,565.94,807.9z M565.61,803.81c0.94-0.07,1.79-0.3,2.55-0.68c0.76-0.39,1.42-0.91,1.98-1.56
				c0.55-0.65,0.97-1.39,1.24-2.23s0.37-1.75,0.29-2.74s-0.3-1.89-0.69-2.67c-0.39-0.78-0.9-1.46-1.55-2.02
				c-0.64-0.56-1.37-0.98-2.18-1.25c-0.81-0.27-1.69-0.37-2.62-0.3c-0.94,0.07-1.79,0.3-2.57,0.68c-0.77,0.39-1.43,0.91-1.98,1.56
				c-0.54,0.65-0.95,1.39-1.22,2.22s-0.37,1.75-0.29,2.74c0.07,1,0.3,1.89,0.69,2.67c0.39,0.78,0.9,1.46,1.53,2.02
				c0.63,0.57,1.36,0.98,2.18,1.25C563.79,803.77,564.67,803.88,565.61,803.81z"/>
			<path d="M583.45,805.83l-3.47-20.71l8.96-1.5c1.85-0.31,3.5-0.28,4.94,0.1c1.44,0.38,2.62,1.07,3.54,2.07
				c0.92,1,1.51,2.27,1.76,3.81c0.26,1.56,0.12,2.96-0.42,4.19c-0.54,1.24-1.43,2.27-2.67,3.11c-1.24,0.83-2.79,1.41-4.64,1.72
				l-6.33,1.06l1.83-2.53l1.32,7.87L583.45,805.83z M587.04,797.69l-2.57-1.91l6.06-1.02c1.46-0.24,2.51-0.74,3.16-1.5
				c0.64-0.76,0.87-1.71,0.68-2.85c-0.19-1.14-0.71-1.96-1.57-2.46c-0.85-0.5-2.01-0.62-3.47-0.38l-6.07,1.02l1.81-2.65
				L587.04,797.69z"/>
			<path d="M616.58,799.51c-2.88,0.75-5.35,0.54-7.39-0.65c-2.04-1.18-3.46-3.27-4.24-6.27l-2.96-11.35l4.73-1.23l2.93,11.23
				c0.5,1.92,1.26,3.2,2.28,3.85c1.02,0.66,2.23,0.8,3.65,0.43c1.43-0.37,2.43-1.09,3-2.16c0.57-1.07,0.6-2.56,0.1-4.48l-2.93-11.23
				l4.62-1.2l2.96,11.35c0.78,3,0.57,5.51-0.64,7.54C621.48,797.37,619.44,798.76,616.58,799.51z"/>
			<path d="M632.51,794.55l-6.94-19.82l4.62-1.62l5.63,16.08l9.88-3.46l1.31,3.74L632.51,794.55z"/>
			<path d="M651.47,787.58l-8.05-19.4l4.52-1.88l8.05,19.4L651.47,787.58z"/>
		</g>
	</g>
	<rect x="247.9" y="646.19" fill="none" width="82.72" height="123.57"/>
	<g>
		<g>
			<g>
				<path d="M544.93,315.71v2.63c-0.38,0-0.77,0-1.15,0.01c-2.05,0.01-4.1,0.05-6.14,0.12c-2.57,0.09-5.13,0.22-7.68,0.39
					c-3.59,0.24-7.16,0.59-10.69,1.01c-6.75,0.8-13.4,1.93-19.94,3.35c-10.07,2.2-19.87,5.1-29.36,8.65
					c-1.51,0.57-3.01,1.15-4.51,1.75c-18.81,7.54-36.3,17.67-52.05,29.97c-0.82,0.64-1.64,1.28-2.45,1.94
					c-11.54,9.27-22.1,19.71-31.49,31.14c-0.59,0.7-1.15,1.4-1.72,2.11c-8.15,10.17-15.39,21.09-21.6,32.64
					c-0.41,0.76-0.82,1.53-1.22,2.31c-5.74,10.99-10.55,22.54-14.33,34.53c-0.26,0.84-0.52,1.67-0.78,2.51
					c-3.59,11.92-6.18,24.27-7.64,36.97c-0.11,0.91-0.21,1.82-0.3,2.74c-0.74,7.24-1.13,14.59-1.13,22.03
					c0,6.07,0.26,12.09,0.76,18.04c0.08,1,0.17,1.99,0.27,2.99c1.49,15.25,4.59,30.03,9.13,44.18c0.35,1.1,0.7,2.18,1.07,3.28
					c6.01,17.75,14.29,34.47,24.48,49.81c0.8,1.21,1.62,2.41,2.45,3.6c15.86,22.85,36.06,42.47,59.4,57.68
					c2.03,1.34,4.1,2.63,6.19,3.88c19.76,11.95,41.6,20.79,64.83,25.85c6.54,1.42,13.19,2.55,19.94,3.35
					c3.53,0.43,7.1,0.77,10.69,1.01c2.55,0.18,5.11,0.31,7.68,0.39c2.04,0.07,4.09,0.11,6.14,0.12c0.38,0.01,0.77,0.01,1.15,0.01
					v2.63c-42.71,0-83.54-12.27-118.45-35.13c-1.93-1.26-3.85-2.57-5.74-3.9c-10.3-7.22-20.04-15.39-29.12-24.47
					c-10.21-10.21-19.28-21.26-27.14-32.99c-0.8-1.2-1.59-2.4-2.36-3.61c-9.95-15.52-17.83-32.16-23.48-49.61
					c-0.36-1.09-0.7-2.18-1.03-3.28c-4.36-14.23-7.25-28.96-8.61-44.01c-0.09-0.99-0.17-1.99-0.24-2.99
					c-0.43-5.57-0.64-11.18-0.64-16.82c0-7.79,0.41-15.52,1.22-23.16c0.09-0.91,0.2-1.83,0.31-2.74c1.48-12.58,4.05-24.92,7.66-36.9
					c0.25-0.84,0.51-1.68,0.77-2.52c3.74-11.89,8.51-23.42,14.25-34.48c0.4-0.77,0.81-1.54,1.22-2.31
					c6.11-11.41,13.27-22.3,21.43-32.56c0.56-0.71,1.13-1.41,1.7-2.12c4.67-5.72,9.65-11.24,14.94-16.53
					c5.15-5.15,10.5-10,16.05-14.56c0.8-0.65,1.6-1.3,2.4-1.93c15.42-12.3,32.28-22.33,50.17-29.91c1.41-0.61,2.83-1.18,4.26-1.75
					c24.31-9.71,50.43-14.94,77.34-15.32C542.86,315.73,543.9,315.71,544.93,315.71z"/>
			</g>
			<g>
				<path d="M544.96,749.35c-46.46,0-90.12-22.59-122.93-63.61c-32.75-40.94-50.78-95.34-50.78-153.2s18.04-112.27,50.78-153.2
					c32.82-41.02,76.48-63.61,122.93-63.61v2.63c-94.34,0-171.08,96.08-171.08,214.18s76.75,214.18,171.08,214.18V749.35z"/>
			</g>
			<g>
				<path d="M545,749.35c-35.02,0-67.89-22.64-92.56-63.76c-24.54-40.9-38.06-95.26-38.06-153.06c0-57.8,13.52-112.15,38.06-153.06
					c24.67-41.11,57.54-63.76,92.56-63.76v2.63c-70.57,0-127.98,96.08-127.98,214.18S474.43,746.71,545,746.71V749.35z"/>
			</g>
			<g>
				<path d="M545.03,749.35c-23.6,0-45.68-22.71-62.17-63.95c-16.34-40.85-25.34-95.15-25.34-152.87s9-112.02,25.34-152.87
					c16.49-41.24,38.58-63.95,62.17-63.95v2.63c-22.45,0-43.66,22.12-59.73,62.29c-16.22,40.55-25.15,94.49-25.15,151.89
					c0,57.4,8.93,111.34,25.15,151.89c16.07,40.17,37.28,62.29,59.73,62.29V749.35z"/>
			</g>
			<g>
				<path d="M545.06,749.35c-15.65,0-25.91-34.9-31.77-64.18c-8.16-40.78-12.65-94.99-12.65-152.64
					c0-57.65,4.49-111.85,12.65-152.64c5.86-29.28,16.12-64.18,31.77-64.18v2.63c-10.66,0-21.3,22.62-29.19,62.06
					c-8.12,40.62-12.6,94.65-12.6,152.12s4.47,111.5,12.6,152.12c7.89,39.44,18.53,62.06,29.19,62.06V749.35z"/>
			</g>
			<g>
				<rect x="543.78" y="317.03" width="2.63" height="431"/>
			</g>
			<g>
				<path d="M545.13,749.35v-2.63c10.66,0,21.3-22.62,29.19-62.06c8.12-40.62,12.6-94.65,12.6-152.12s-4.47-111.5-12.6-152.12
					c-7.89-39.44-18.53-62.06-29.19-62.06v-2.63c15.65,0,25.91,34.9,31.77,64.18c8.16,40.79,12.65,94.99,12.65,152.64
					c0,57.65-4.49,111.86-12.65,152.64C571.04,714.45,560.78,749.35,545.13,749.35z"/>
			</g>
			<g>
				<path d="M545.16,749.35v-2.63c22.45,0,43.66-22.12,59.73-62.29c16.22-40.55,25.15-94.49,25.15-151.89
					c0-57.4-8.93-111.34-25.15-151.89c-16.07-40.17-37.28-62.29-59.73-62.29v-2.63c23.6,0,45.68,22.71,62.17,63.95
					c16.34,40.85,25.34,95.15,25.34,152.87s-9,112.02-25.34,152.87C590.84,726.64,568.76,749.35,545.16,749.35z"/>
			</g>
			<g>
				<path d="M545.19,749.35v-2.63c70.57,0,127.98-96.08,127.98-214.18s-57.41-214.18-127.98-214.18v-2.63
					c35.02,0,67.89,22.64,92.56,63.76c24.54,40.9,38.06,95.26,38.06,153.06c0,57.8-13.52,112.15-38.06,153.06
					C613.08,726.7,580.21,749.35,545.19,749.35z"/>
			</g>
			<g>
				<path d="M545.23,749.35v-2.63c94.34,0,171.08-96.08,171.08-214.18s-76.75-214.18-171.08-214.18v-2.63
					c46.46,0,90.12,22.59,122.93,63.61c32.75,40.94,50.78,95.34,50.78,153.2s-18.04,112.27-50.78,153.2
					C635.34,726.75,591.69,749.35,545.23,749.35z"/>
			</g>
			<g>
				<path d="M762.08,532.53c0,5.57-0.21,11.09-0.63,16.59c-0.07,0.99-0.15,1.99-0.24,2.98c-1.34,15.05-4.21,29.78-8.55,44
					c-0.34,1.1-0.68,2.2-1.04,3.29c-5.63,17.44-13.48,34.09-23.39,49.61h-0.01c-0.77,1.21-1.55,2.42-2.36,3.62
					c-7.9,11.82-17.02,22.95-27.29,33.22c-9,9-18.65,17.11-28.85,24.29h-0.01c-1.9,1.34-3.8,2.64-5.74,3.91
					c-34.97,22.98-75.9,35.31-118.72,35.31v-2.63c0.38,0,0.77,0,1.15-0.01c2.05-0.01,4.1-0.05,6.14-0.12
					c2.57-0.09,5.13-0.22,7.68-0.39c3.59-0.24,7.16-0.59,10.69-1.01c6.75-0.8,13.4-1.93,19.94-3.35
					c23.34-5.09,45.27-13.98,65.1-26.01c2.08-1.26,4.14-2.55,6.17-3.89h0.01c23.3-15.23,43.46-34.87,59.29-57.73
					c0.83-1.2,1.65-2.4,2.45-3.61c10.17-15.34,18.42-32.06,24.41-49.81c0.36-1.09,0.72-2.18,1.07-3.28
					c4.51-14.15,7.59-28.93,9.07-44.17c0.1-0.99,0.19-1.99,0.27-2.99c0.49-5.88,0.74-11.82,0.74-17.81c0-7.51-0.39-14.93-1.14-22.24
					c-0.1-0.91-0.2-1.82-0.31-2.73c-1.47-12.69-4.07-25.04-7.67-36.95c-0.25-0.84-0.51-1.67-0.78-2.51
					c-3.78-11.99-8.61-23.53-14.36-34.51c-0.39-0.77-0.8-1.54-1.22-2.31c-6.21-11.55-13.46-22.46-21.62-32.61
					c-0.57-0.71-1.14-1.42-1.72-2.12c-9.4-11.42-19.97-21.85-31.51-31.11c-0.81-0.66-1.63-1.3-2.44-1.93h-0.01
					c-15.75-12.28-33.25-22.4-52.06-29.93h-0.01c-1.49-0.6-2.99-1.18-4.51-1.75h-0.01c-9.44-3.53-19.2-6.42-29.22-8.6
					c-6.54-1.42-13.19-2.55-19.94-3.35c-3.53-0.43-7.1-0.77-10.69-1.01c-2.55-0.18-5.11-0.31-7.68-0.39
					c-2.04-0.07-4.09-0.11-6.14-0.12c-0.38-0.01-0.77-0.01-1.15-0.01v-2.63c1.03,0,2.07,0.01,3.1,0.04
					c26.86,0.37,52.92,5.59,77.2,15.26h0.01c1.43,0.57,2.85,1.15,4.26,1.76c17.89,7.57,34.75,17.58,50.17,29.87
					c0.8,0.64,1.61,1.28,2.4,1.93c5.59,4.59,10.99,9.47,16.17,14.65c5.25,5.25,10.2,10.73,14.84,16.4c0.58,0.7,1.15,1.41,1.7,2.12
					c8.17,10.25,15.34,21.14,21.45,32.53c0.41,0.77,0.82,1.54,1.22,2.32c5.75,11.05,10.52,22.57,14.27,34.45
					c0.26,0.84,0.52,1.67,0.78,2.51c3.61,11.98,6.19,24.31,7.69,36.88c0.12,0.91,0.22,1.82,0.31,2.74
					C761.66,516.87,762.08,524.67,762.08,532.53z"/>
			</g>
		</g>
		<g>
			<g>
				<g>
					<path d="M629.82,332.76c-1.74,0.28-3.48,0.55-5.22,0.82h-0.01c-2.66,0.41-5.32,0.79-7.99,1.15c-1.53,0.22-3.06,0.41-4.59,0.61
						c-3.55,0.45-7.11,0.88-10.68,1.25c-1.3,0.14-2.61,0.28-3.91,0.41h-0.01c-4.41,0.44-8.82,0.83-13.25,1.15
						c-1.06,0.09-2.13,0.16-3.19,0.23c-5.1,0.35-10.2,0.63-15.31,0.83h-0.01c-0.95,0.03-1.89,0.07-2.84,0.11
						c-5.47,0.18-10.94,0.28-16.42,0.3c-0.52,0.01-1.04,0.01-1.56,0.01c-0.01,0-0.01,0-0.01,0c-0.36,0-0.71,0-1.07-0.01
						c-5.47-0.01-10.94-0.1-16.42-0.28c-0.95-0.03-1.9-0.07-2.84-0.11h-0.01c-5.11-0.19-10.22-0.46-15.33-0.81
						c-1.07-0.07-2.13-0.14-3.19-0.22h-0.01c-4.44-0.33-8.85-0.71-13.27-1.15c-1.3-0.13-2.61-0.26-3.92-0.39h-0.01
						c-3.57-0.38-7.14-0.8-10.71-1.25c-1.53-0.2-3.07-0.39-4.59-0.61c-2.68-0.36-5.36-0.75-8.03-1.16
						c-1.74-0.26-3.48-0.53-5.22-0.82c1.41-0.61,2.83-1.18,4.26-1.75c1.82,0.28,3.65,0.56,5.47,0.82c2.35,0.35,4.7,0.67,7.06,0.97
						c1.6,0.22,3.2,0.41,4.8,0.61c3.24,0.4,6.46,0.76,9.71,1.09h0.01c1.35,0.14,2.7,0.28,4.05,0.39h0.01
						c4.09,0.39,8.17,0.73,12.26,1.02c1.09,0.08,2.18,0.16,3.28,0.22c4.78,0.31,9.55,0.55,14.34,0.73c0.95,0.04,1.91,0.07,2.86,0.1
						c5.15,0.16,10.3,0.25,15.45,0.26c0.88,0.01,1.76,0.01,2.63,0c5.15-0.01,10.3-0.11,15.44-0.28c0.95-0.03,1.91-0.06,2.86-0.1
						c4.77-0.18,9.55-0.43,14.32-0.74c1.09-0.07,2.18-0.15,3.27-0.23c4.08-0.29,8.16-0.63,12.24-1.03c1.35-0.13,2.7-0.26,4.05-0.4
						c3.22-0.33,6.46-0.7,9.68-1.09c1.6-0.19,3.19-0.39,4.79-0.61c2.34-0.3,4.67-0.63,7.01-0.97h0.01c1.82-0.26,3.64-0.53,5.46-0.82
						h0.01C626.99,331.57,628.41,332.16,629.82,332.76z"/>
				</g>
				<g>
					<path d="M682.4,364.56c-1.1,0.3-2.19,0.59-3.29,0.88c-5.46,1.43-10.94,2.77-16.44,4.03c-0.81,0.18-1.63,0.37-2.43,0.55
						c-1.02,0.23-2.04,0.45-3.06,0.67h-0.01c-7.36,1.6-14.75,3.04-22.18,4.32c-0.95,0.16-1.9,0.33-2.86,0.48h-0.01
						c-8.32,1.4-16.66,2.58-25.04,3.57c-0.91,0.11-1.81,0.21-2.72,0.32c-9.01,1.02-18.06,1.8-27.12,2.36
						c-0.88,0.06-1.77,0.11-2.65,0.16c-9.39,0.53-18.79,0.81-28.2,0.84c-0.52,0.01-1.04,0.01-1.56,0.01c-0.01,0-0.01,0-0.01,0
						c-0.36,0-0.71,0-1.07-0.01c-9.4-0.01-18.81-0.28-28.2-0.81c-0.88-0.05-1.77-0.1-2.65-0.16c-9.06-0.54-18.11-1.32-27.13-2.33
						c-0.9-0.11-1.81-0.2-2.72-0.32c-8.38-0.98-16.75-2.16-25.07-3.55c-0.95-0.16-1.9-0.32-2.86-0.48
						c-7.44-1.28-14.84-2.7-22.21-4.3c-1.02-0.22-2.05-0.44-3.07-0.67c-0.95-0.21-1.9-0.42-2.84-0.64
						c-5.38-1.22-10.73-2.53-16.07-3.93c-1.1-0.29-2.19-0.58-3.29-0.88c0.8-0.65,1.6-1.3,2.4-1.93c1.11,0.3,2.22,0.59,3.34,0.87
						c6.11,1.59,12.23,3.06,18.38,4.42c1.03,0.23,2.07,0.45,3.1,0.67c7.21,1.55,14.44,2.95,21.68,4.19
						c0.96,0.16,1.92,0.33,2.88,0.48c8.17,1.36,16.35,2.51,24.56,3.47c0.91,0.11,1.82,0.21,2.72,0.32
						c8.87,0.99,17.75,1.76,26.65,2.3h0.01c0.88,0.05,1.76,0.11,2.65,0.15h0.01c9.24,0.51,18.48,0.78,27.74,0.79
						c0.88,0.01,1.76,0.01,2.63,0c9.25-0.03,18.5-0.3,27.74-0.82c0.89-0.05,1.77-0.11,2.66-0.16c8.89-0.55,17.77-1.32,26.64-2.32
						c0.91-0.11,1.82-0.21,2.72-0.32c8.19-0.97,16.37-2.13,24.53-3.49c0.96-0.16,1.91-0.32,2.88-0.49
						c7.24-1.24,14.46-2.65,21.65-4.2c1.03-0.22,2.07-0.45,3.1-0.68c6.13-1.36,12.25-2.84,18.34-4.42h0.01
						c1.11-0.29,2.22-0.58,3.33-0.88C680.8,363.27,681.6,363.91,682.4,364.56z"/>
				</g>
				<g>
					<path d="M715.11,397.73c-0.92,0.32-1.85,0.63-2.77,0.93c-8.5,2.84-17.08,5.45-25.7,7.84c-0.91,0.26-1.81,0.51-2.72,0.75
						c-7.05,1.92-14.13,3.69-21.25,5.31c-2.63,0.6-5.26,1.18-7.9,1.74c-0.89,0.19-1.78,0.38-2.67,0.55
						c-10.58,2.19-21.23,4.05-31.92,5.58c-0.88,0.13-1.74,0.26-2.62,0.38c-11.22,1.55-22.5,2.75-33.8,3.58
						c-0.88,0.07-1.76,0.13-2.63,0.18c-11.55,0.8-23.14,1.21-34.72,1.24c-0.52,0.01-1.05,0.01-1.57,0.01c-0.36,0-0.71,0-1.07-0.01
						c-11.58-0.02-23.16-0.42-34.72-1.21c-0.88-0.05-1.76-0.11-2.63-0.18c-11.3-0.82-22.58-2-33.81-3.55
						c-0.88-0.12-1.75-0.24-2.63-0.37c-10.71-1.53-21.35-3.38-31.94-5.55c-0.89-0.18-1.78-0.37-2.67-0.56
						c-2.79-0.59-5.57-1.2-8.36-1.83c-6.98-1.59-13.92-3.32-20.83-5.19c-0.91-0.24-1.82-0.49-2.72-0.75
						c-8.64-2.39-17.23-5-25.74-7.84c-0.93-0.3-1.85-0.61-2.77-0.93c0.56-0.71,1.13-1.41,1.7-2.12c0.93,0.32,1.86,0.63,2.79,0.93
						c8.39,2.79,16.83,5.36,25.31,7.71c0.91,0.26,1.82,0.51,2.73,0.75c9.55,2.6,19.15,4.92,28.79,6.96
						c0.89,0.19,1.78,0.38,2.67,0.56c10.49,2.17,21.02,4.01,31.59,5.53c0.88,0.13,1.75,0.26,2.63,0.37
						c11.14,1.55,22.32,2.73,33.51,3.55c0.88,0.07,1.75,0.13,2.63,0.18c11.47,0.79,22.96,1.19,34.45,1.21
						c0.88,0.01,1.76,0.01,2.63,0c11.49-0.03,22.98-0.44,34.45-1.24c0.88-0.06,1.75-0.13,2.63-0.19c11.19-0.83,22.36-2.02,33.5-3.58
						c0.88-0.12,1.74-0.24,2.62-0.37c10.56-1.53,21.09-3.38,31.57-5.55c0.89-0.18,1.78-0.38,2.67-0.56
						c9.63-2.05,19.23-4.38,28.77-6.99c0.91-0.24,1.82-0.49,2.72-0.75c8.47-2.36,16.9-4.93,25.28-7.73c0.93-0.3,1.86-0.62,2.79-0.93
						C713.99,396.32,714.55,397.02,715.11,397.73z"/>
				</g>
				<g>
					<path d="M737.79,432.58l-2.61,1.01c-10.26,3.95-20.64,7.57-31.11,10.87c-0.87,0.28-1.74,0.55-2.61,0.82
						c-11.32,3.51-22.77,6.63-34.29,9.36c-0.87,0.21-1.74,0.41-2.61,0.61c-0.63,0.15-1.26,0.3-1.9,0.44
						c-11.46,2.61-23.02,4.84-34.63,6.69c-0.87,0.14-1.74,0.28-2.61,0.41c-12.57,1.93-25.22,3.42-37.9,4.44
						c-0.88,0.07-1.74,0.14-2.62,0.2c-12.81,0.97-25.66,1.48-38.51,1.51c-0.52,0.01-1.04,0.01-1.56,0.01c-0.01,0-0.01,0-0.01,0
						c-0.36,0-0.71,0-1.07-0.01c-12.84-0.02-25.7-0.51-38.51-1.47c-0.88-0.07-1.75-0.13-2.63-0.2c-12.68-1.01-25.32-2.49-37.9-4.41
						c-0.87-0.13-1.74-0.26-2.61-0.4c-11.78-1.86-23.49-4.12-35.11-6.76c-0.47-0.11-0.95-0.22-1.42-0.33
						c-0.88-0.2-1.75-0.4-2.62-0.61c-11.54-2.72-22.98-5.84-34.31-9.34c-0.87-0.26-1.74-0.53-2.61-0.81
						c-10.49-3.29-20.88-6.92-31.15-10.85c-0.87-0.34-1.74-0.67-2.6-1.01c0.4-0.77,0.81-1.54,1.22-2.31
						c0.87,0.34,1.74,0.68,2.61,1.01c10.19,3.92,20.45,7.51,30.79,10.77c0.87,0.28,1.74,0.55,2.61,0.82
						c11.27,3.5,22.6,6.61,34.01,9.32c0.88,0.21,1.74,0.41,2.62,0.62c12.04,2.8,24.14,5.18,36.3,7.11c0.87,0.14,1.74,0.28,2.61,0.41
						c12.54,1.94,25.12,3.42,37.72,4.44c0.88,0.07,1.74,0.14,2.62,0.2c12.77,0.97,25.56,1.47,38.36,1.49c0.88,0.01,1.76,0.01,2.63,0
						c12.79-0.03,25.58-0.54,38.36-1.52c0.87-0.07,1.74-0.14,2.62-0.22c12.61-1.02,25.19-2.51,37.72-4.46
						c0.87-0.13,1.74-0.27,2.61-0.41c12.15-1.95,24.25-4.33,36.28-7.15c0.88-0.2,1.74-0.41,2.62-0.62
						c11.4-2.72,22.73-5.84,33.99-9.34c0.87-0.26,1.74-0.54,2.61-0.82c10.32-3.26,20.58-6.86,30.76-10.78
						c0.87-0.34,1.74-0.67,2.61-1.01C736.98,431.04,737.39,431.81,737.79,432.58z"/>
				</g>
				<g>
					<path d="M752.84,469.54c-0.84,0.36-1.68,0.72-2.52,1.07c-11.73,4.94-23.64,9.44-35.69,13.52h-0.01
						c-0.86,0.29-1.7,0.58-2.56,0.86c-12.55,4.18-25.26,7.88-38.08,11.09c-0.86,0.22-1.73,0.44-2.59,0.64
						c-2.9,0.72-5.8,1.41-8.72,2.07c-10.16,2.32-20.4,4.34-30.69,6.04c-0.87,0.15-1.74,0.3-2.62,0.43
						c-13.28,2.15-26.64,3.78-40.05,4.91c-0.88,0.07-1.75,0.14-2.63,0.21c-13.4,1.07-26.84,1.63-40.28,1.66
						c-0.52,0.01-1.05,0.01-1.57,0.01c-0.36,0-0.71,0-1.07-0.01c-13.44-0.02-26.87-0.57-40.28-1.62c-0.88-0.07-1.75-0.13-2.63-0.21
						c-13.4-1.11-26.77-2.74-40.05-4.87c-0.88-0.14-1.74-0.28-2.62-0.43c-10.46-1.72-20.86-3.77-31.18-6.13
						c-2.75-0.63-5.49-1.28-8.24-1.95c-0.86-0.2-1.73-0.42-2.59-0.64c-12.82-3.2-25.54-6.9-38.09-11.07
						c-0.86-0.28-1.71-0.57-2.57-0.86c-12.06-4.06-23.98-8.56-35.72-13.48c-0.84-0.35-1.68-0.7-2.51-1.06
						c0.25-0.84,0.51-1.68,0.77-2.52c0.84,0.36,1.68,0.72,2.52,1.07c11.7,4.93,23.51,9.42,35.42,13.46
						c0.86,0.29,1.71,0.58,2.57,0.86c12.53,4.18,25.16,7.89,37.88,11.1c0.86,0.22,1.72,0.43,2.59,0.65
						c13.02,3.22,26.13,5.94,39.29,8.15c0.88,0.15,1.75,0.3,2.62,0.43c13.28,2.16,26.61,3.8,39.97,4.93
						c0.88,0.08,1.75,0.15,2.63,0.22c13.39,1.07,26.81,1.61,40.22,1.63c0.88,0.01,1.76,0.01,2.63,0
						c13.42-0.03,26.83-0.59,40.22-1.67c0.88-0.07,1.75-0.14,2.63-0.22c13.36-1.14,26.7-2.8,39.97-4.97
						c0.88-0.14,1.75-0.29,2.62-0.43c13.16-2.22,26.26-4.95,39.28-8.19c0.87-0.21,1.73-0.43,2.59-0.65
						c12.71-3.22,25.34-6.94,37.86-11.13c0.86-0.29,1.71-0.58,2.56-0.87c11.9-4.05,23.71-8.55,35.39-13.48
						c0.84-0.36,1.68-0.71,2.52-1.07C752.32,467.87,752.58,468.7,752.84,469.54z"/>
				</g>
				<g>
					<path d="M760.83,509.16c-0.84,0.38-1.68,0.76-2.53,1.13c-12.94,5.69-26.1,10.86-39.44,15.49c-0.87,0.3-1.74,0.61-2.61,0.9
						c-13.34,4.56-26.85,8.59-40.49,12.06c-0.88,0.22-1.76,0.45-2.65,0.66c-3.47,0.87-6.96,1.7-10.44,2.49
						c-10,2.28-20.08,4.27-30.21,5.96c-0.88,0.15-1.76,0.3-2.65,0.44c-13.42,2.18-26.92,3.84-40.47,4.98
						c-0.88,0.08-1.76,0.15-2.64,0.22c-13.41,1.07-26.85,1.62-40.3,1.65c-0.52,0.01-1.04,0.01-1.56,0.01c-0.01,0-0.01,0-0.01,0
						c-0.36,0-0.71,0-1.07-0.01c-13.44-0.02-26.89-0.56-40.3-1.61c-0.88-0.07-1.76-0.14-2.64-0.22
						c-13.55-1.13-27.05-2.78-40.47-4.94c-0.88-0.14-1.76-0.29-2.65-0.43c-10.29-1.71-20.54-3.73-30.7-6.05
						c-3.32-0.76-6.64-1.55-9.95-2.37c-0.88-0.22-1.76-0.44-2.65-0.66c-13.64-3.46-27.16-7.48-40.49-12.02
						c-0.88-0.3-1.75-0.59-2.62-0.9c-13.35-4.61-26.51-9.77-39.45-15.44c-0.85-0.37-1.69-0.74-2.54-1.13
						c0.09-0.91,0.2-1.83,0.31-2.74c0.84,0.38,1.68,0.76,2.53,1.13c12.93,5.71,26.02,10.88,39.23,15.5
						c0.87,0.31,1.73,0.61,2.61,0.91c13.35,4.59,26.83,8.64,40.4,12.13c0.88,0.23,1.75,0.45,2.63,0.68
						c13.46,3.38,27.01,6.23,40.63,8.53c0.88,0.15,1.77,0.3,2.65,0.44c13.45,2.2,26.95,3.88,40.49,5.03
						c0.88,0.07,1.76,0.14,2.64,0.22c13.42,1.07,26.88,1.62,40.34,1.64c0.88,0.01,1.76,0.01,2.63,0c13.46-0.03,26.91-0.6,40.34-1.68
						c0.88-0.07,1.76-0.14,2.64-0.22c13.54-1.16,27.04-2.84,40.49-5.07c0.89-0.14,1.77-0.29,2.65-0.44
						c13.61-2.32,27.16-5.17,40.63-8.57c0.88-0.22,1.76-0.45,2.64-0.68c13.57-3.51,27.04-7.56,40.39-12.17
						c0.87-0.3,1.74-0.6,2.6-0.9c13.21-4.64,26.28-9.82,39.21-15.54c0.85-0.38,1.69-0.75,2.53-1.13
						C760.64,507.33,760.74,508.25,760.83,509.16z"/>
				</g>
				<g>
					<path d="M761.45,549.12c-0.07,0.99-0.15,1.99-0.24,2.98c-0.92,0.42-1.84,0.83-2.77,1.23c-13.77,6.07-27.8,11.54-42.03,16.4
						c-0.94,0.33-1.88,0.64-2.82,0.96c-13.59,4.57-27.37,8.58-41.26,12.02c-0.93,0.24-1.86,0.46-2.79,0.68
						c-2.28,0.56-4.57,1.1-6.86,1.62c-11,2.51-22.09,4.67-33.24,6.46c-0.9,0.14-1.8,0.29-2.7,0.43
						c-12.98,2.03-26.02,3.57-39.11,4.63c-0.88,0.07-1.77,0.14-2.65,0.21c-12.83,0.97-25.7,1.49-38.56,1.52
						c-0.52,0.01-1.04,0.01-1.56,0.01c-0.01,0-0.01,0-0.01,0c-0.36,0-0.71,0-1.07-0.01c-12.86-0.02-25.73-0.51-38.56-1.48
						c-0.89-0.07-1.77-0.13-2.65-0.2c-13.09-1.05-26.14-2.58-39.11-4.59c-0.9-0.14-1.8-0.28-2.7-0.43
						c-11.32-1.82-22.57-3.99-33.74-6.54c-2.12-0.48-4.24-0.98-6.35-1.49c-0.93-0.22-1.86-0.45-2.79-0.68v-0.01
						c-13.9-3.42-27.68-7.42-41.26-11.98c-0.94-0.32-1.88-0.63-2.82-0.96c-14.23-4.84-28.26-10.3-42.03-16.34
						c-0.92-0.4-1.85-0.81-2.77-1.22c-0.09-0.99-0.17-1.99-0.24-2.99c0.91,0.41,1.83,0.82,2.74,1.22
						c13.81,6.12,27.8,11.62,41.92,16.5c0.93,0.32,1.87,0.64,2.81,0.96c13.65,4.63,27.42,8.69,41.29,12.16
						c0.92,0.24,1.85,0.47,2.78,0.69c13.32,3.26,26.73,5.99,40.19,8.19c0.9,0.15,1.8,0.3,2.69,0.43c13.04,2.07,26.13,3.63,39.24,4.7
						c0.88,0.08,1.76,0.14,2.65,0.21c12.88,0.99,25.79,1.49,38.7,1.51c0.88,0.01,1.76,0.01,2.63,0c12.91-0.03,25.82-0.55,38.7-1.55
						c0.88-0.07,1.77-0.14,2.65-0.22c13.12-1.08,26.22-2.66,39.25-4.74c0.9-0.14,1.8-0.28,2.69-0.43
						c13.47-2.22,26.88-4.96,40.2-8.24c0.93-0.23,1.85-0.46,2.78-0.69c13.87-3.49,27.65-7.56,41.3-12.21
						c0.93-0.32,1.88-0.64,2.8-0.96c14.13-4.9,28.11-10.41,41.92-16.55C759.62,549.94,760.54,549.53,761.45,549.12z"/>
				</g>
				<g>
					<path d="M752.66,596.1c-0.34,1.1-0.68,2.2-1.04,3.29c-1.11,0.47-2.22,0.93-3.32,1.39c-14.04,5.82-28.31,11.05-42.79,15.66
						c-1.07,0.34-2.15,0.68-3.22,1.01c-13.07,4.06-26.29,7.62-39.61,10.66c-0.05,0.01-0.11,0.03-0.16,0.03
						c-1.01,0.23-2.01,0.46-3.01,0.68h-0.01c-12.33,2.74-24.75,5.02-37.26,6.86c-0.93,0.14-1.86,0.28-2.78,0.4
						c-11.82,1.68-23.7,2.97-35.61,3.84c-0.89,0.07-1.78,0.13-2.67,0.19c-11.57,0.8-23.16,1.21-34.76,1.24
						c-0.52,0.01-1.04,0.01-1.56,0.01c-0.01,0-0.01,0-0.01,0c-0.36,0-0.71,0-1.07-0.01c-11.59-0.02-23.18-0.43-34.75-1.21
						c-0.89-0.06-1.78-0.12-2.67-0.19c-11.9-0.86-23.78-2.13-35.6-3.8c-0.93-0.12-1.86-0.26-2.78-0.4
						c-12.5-1.82-24.92-4.1-37.24-6.82c-1.01-0.22-2.01-0.45-3.02-0.68c-0.23-0.05-0.45-0.1-0.68-0.15
						c-13.14-2.99-26.18-6.49-39.06-10.49c-1.07-0.34-2.15-0.67-3.22-1.01c-14.47-4.59-28.74-9.79-42.77-15.6
						c-1.11-0.45-2.22-0.92-3.33-1.39c-0.36-1.09-0.7-2.18-1.03-3.28c1.1,0.47,2.19,0.94,3.29,1.4
						c14.13,5.94,28.43,11.24,42.86,15.89c1.07,0.35,2.13,0.69,3.2,1.02c13.22,4.18,26.55,7.82,39.97,10.92c1,0.24,2,0.47,3.01,0.69
						h0.01c12.44,2.8,24.95,5.14,37.51,7.02c0.92,0.14,1.85,0.28,2.77,0.41c11.92,1.72,23.89,3.03,35.88,3.92
						c0.89,0.07,1.78,0.13,2.67,0.19c11.66,0.81,23.35,1.22,35.03,1.24c0.88,0.01,1.76,0.01,2.63,0
						c11.68-0.03,23.36-0.46,35.03-1.28c0.89-0.07,1.78-0.13,2.67-0.2c11.99-0.9,23.95-2.22,35.88-3.96
						c0.92-0.12,1.85-0.26,2.78-0.41c12.56-1.89,25.08-4.24,37.53-7.07c1-0.22,2.01-0.45,3.01-0.68
						c13.42-3.12,26.75-6.78,39.99-10.97h0.01c1.07-0.34,2.13-0.68,3.19-1.03h0.01c14.44-4.67,28.74-9.99,42.88-15.95
						C750.47,597.04,751.56,596.57,752.66,596.1z"/>
				</g>
				<g>
					<path d="M728.22,649c-0.77,1.21-1.55,2.42-2.36,3.62c-1.47,0.53-2.95,1.07-4.43,1.59c-13.03,4.61-26.24,8.7-39.57,12.27
						c-1.3,0.35-2.59,0.69-3.89,1.03c-5.09,1.32-10.19,2.57-15.31,3.73c-6.33,1.44-12.69,2.77-19.08,3.97
						c-1.12,0.22-2.24,0.42-3.36,0.63c-10.29,1.88-20.64,3.46-31.03,4.73c-0.98,0.12-1.97,0.24-2.95,0.36h-0.01
						c-9.65,1.13-19.33,1.99-29.03,2.58c-0.91,0.06-1.81,0.11-2.72,0.16h-0.01c-9.36,0.53-18.73,0.8-28.1,0.83
						c-0.52,0.01-1.04,0.01-1.56,0.01c-0.01,0-0.01,0-0.01,0c-0.36,0-0.71,0-1.07-0.01c-9.37-0.01-18.74-0.28-28.1-0.8
						c-0.91-0.05-1.82-0.1-2.72-0.16c-9.69-0.58-19.37-1.43-29.01-2.55c-0.98-0.11-1.96-0.23-2.95-0.35
						c-10.38-1.26-20.71-2.82-31-4.7c-1.12-0.2-2.23-0.41-3.35-0.62h-0.01c-6.57-1.24-13.11-2.6-19.62-4.08
						c-4.92-1.12-9.82-2.31-14.71-3.57c-1.3-0.34-2.59-0.67-3.89-1.03h-0.01c-13.32-3.55-26.5-7.61-39.51-12.2
						c-1.48-0.51-2.95-1.04-4.43-1.58c-0.8-1.2-1.59-2.4-2.36-3.61c1.44,0.53,2.89,1.07,4.34,1.59
						c13.23,4.78,26.58,9.01,40.04,12.69c1.28,0.35,2.55,0.7,3.84,1.03h0.01c11.57,3.08,23.21,5.74,34.89,8.01
						c1.11,0.22,2.22,0.43,3.32,0.63c10.47,1.97,20.97,3.61,31.51,4.92h0.01c0.98,0.13,1.96,0.25,2.94,0.36
						c9.81,1.17,19.65,2.07,29.5,2.68c0.9,0.05,1.8,0.11,2.71,0.16c9.51,0.54,19.03,0.82,28.55,0.84c0.88,0.01,1.76,0.01,2.63,0
						c9.52-0.03,19.04-0.32,28.56-0.86c0.91-0.05,1.81-0.11,2.71-0.16c9.86-0.62,19.7-1.52,29.52-2.7c0.98-0.12,1.96-0.24,2.94-0.36
						c10.55-1.33,21.06-2.98,31.55-4.95c1.11-0.21,2.22-0.42,3.33-0.64c11.7-2.28,23.35-4.97,34.93-8.06
						c1.28-0.35,2.56-0.69,3.84-1.05h0.01c13.48-3.7,26.85-7.96,40.09-12.77C725.34,650.07,726.78,649.54,728.22,649z"/>
				</g>
				<g>
					<path d="M669.72,710.13c-1.9,1.34-3.8,2.64-5.74,3.91c-0.43,0.11-0.88,0.2-1.31,0.3c-2.23,0.51-4.46,1-6.7,1.48
						c-7.9,1.69-15.83,3.2-23.79,4.53c-2.08,0.35-4.17,0.68-6.25,1.01h-0.01c-6.4,0.99-12.8,1.86-19.22,2.61
						c-1.59,0.19-3.18,0.37-4.77,0.53c-5.69,0.63-11.38,1.14-17.09,1.58c-1.19,0.09-2.38,0.18-3.57,0.26
						c-5.38,0.38-10.77,0.66-16.15,0.87c-0.98,0.04-1.95,0.07-2.93,0.11c-5.26,0.17-10.51,0.26-15.77,0.28
						c-0.52,0.01-1.04,0.01-1.56,0.01c-0.01,0-0.01,0-0.01,0c-0.36,0-0.71,0-1.07-0.01c-5.25-0.01-10.51-0.09-15.76-0.26
						c-0.98-0.03-1.95-0.07-2.93-0.1c-5.38-0.2-10.77-0.49-16.13-0.86c-1.19-0.08-2.38-0.16-3.57-0.25
						c-5.69-0.42-11.37-0.94-17.04-1.55c-1.59-0.16-3.18-0.34-4.78-0.53c-6.4-0.74-12.78-1.6-19.15-2.58
						c-2.09-0.32-4.17-0.65-6.25-1h-0.01c-7.92-1.3-15.81-2.8-23.66-4.47c-2.49-0.53-4.98-1.08-7.47-1.65
						c-0.18-0.04-0.36-0.09-0.55-0.12c-1.93-1.26-3.85-2.57-5.74-3.9c2.52,0.62,5.05,1.21,7.57,1.79c8.5,1.94,17.04,3.67,25.6,5.18
						c1.99,0.36,3.97,0.7,5.96,1.02c6.88,1.14,13.78,2.13,20.69,2.99c1.53,0.19,3.07,0.38,4.61,0.55c6.09,0.7,12.18,1.29,18.28,1.78
						c1.16,0.09,2.33,0.18,3.49,0.26c5.72,0.42,11.46,0.74,17.19,0.97c0.97,0.04,1.94,0.08,2.91,0.11h0.01
						c5.57,0.19,11.15,0.29,16.73,0.3c0.88,0.01,1.76,0.01,2.63,0c5.58-0.01,11.16-0.12,16.74-0.32c0.97-0.03,1.94-0.07,2.91-0.11
						c5.74-0.23,11.48-0.56,17.21-0.99c1.16-0.08,2.33-0.17,3.49-0.27c6.11-0.49,12.22-1.09,18.32-1.8h0.01
						c1.53-0.18,3.07-0.36,4.6-0.56c6.94-0.86,13.86-1.87,20.76-3.02c1.99-0.33,3.97-0.67,5.96-1.03
						c8.61-1.53,17.18-3.28,25.72-5.24h0.01C664.68,711.34,667.2,710.75,669.72,710.13z"/>
				</g>
			</g>
		</g>
	</g>
</g>
</svg>
